# xmcd
#
# Track frame offsets:
# 150
# 16932
# 30780
# 41502
# 61237
# 77577
# 97955
# 117740
# 127267
#
# Disc length: 1900 seconds
#
#
# Revision: 0
# Processed by: cddbd v1.5.2PL0 Copyright (c) Steve Scherf et al.
# Submitted via: Nero 7, 11, 10, 0 
#
DISCID=69076a09
DTITLE=Eugene 'Lucky' Fluker - Carroll County Mississippi
DYEAR=2002
DGENRE=Blues
TTITLE0=I 'm The One You Need
TTITLE1=What Up St. Louis
TTITLE2=Play That Rock And Roll
TTITLE3=Hey Baby Blues
TTITLE4=C.C. Rider
TTITLE5=Since I Met You Baby
TTITLE6=Carroll County, Mississippi
TTITLE7=I'm In Love With You Honey
TTITLE8=Hip Hop (Instrumental)
EXTD=
EXTT0=I 'm The One You Need
EXTT1=What Up St. Louis
EXTT2=Play That Rock And Roll
EXTT3=Hey Baby Blues
EXTT4=C.C. Rider
EXTT5=Since I Met You Baby
EXTT6=Carroll County, Mississippi
EXTT7=I'm In Love With You Honey
EXTT8=Hip Hop (Instrumental)
PLAYORDER=
